Coordinates
version=1
nRows=11
nColumns=63
inDegrees=yes

Units are S.I. units (second, meters, Newtons, ...)
If the header above contains a line with 'inDegrees', this indicates whether rotational values are in degrees (yes) or radians (no).

endheader
time	pelvis_tilt	pelvis_list	pelvis_rotation	pelvis_tx	pelvis_ty	pelvis_tz	hip_flexion_r	hip_adduction_r	hip_rotation_r	knee_angle_r	knee_angle_r_beta	ankle_angle_r	subtalar_angle_r	mtp_angle_r	hip_flexion_l	hip_adduction_l	hip_rotation_l	knee_angle_l	knee_angle_l_beta	ankle_angle_l	subtalar_angle_l	mtp_angle_l	L5_S1_Flex_Ext	L5_S1_Lat_Bending	L5_S1_axial_rotation	L4_L5_Flex_Ext	L4_L5_Lat_Bending	L4_L5_axial_rotation	L3_L4_Flex_Ext	L3_L4_Lat_Bending	L3_L4_axial_rotation	L2_L3_Flex_Ext	L2_L3_Lat_Bending	L2_L3_axial_rotation	L1_L2_Flex_Ext	L1_L2_Lat_Bending	L1_L2_axial_rotation	L1_T12_Flex_Ext	L1_T12_Lat_Bending	L1_T12_axial_rotation	Abs_r3	Abs_r2	Abs_r1	Abs_t1	Abs_t2	neck_flexion	neck_bending	neck_rotation	arm_flex_r	arm_add_r	arm_rot_r	elbow_flex_r	pro_sup_r	wrist_flex_r	wrist_dev_r	arm_flex_l	arm_add_l	arm_rot_l	elbow_flex_l	pro_sup_l	wrist_flex_l	wrist_dev_l
      2.13043478	      4.78234854	     -4.61423656	     94.09665170	     -0.11702705	      0.81206558	      0.67408510	      1.80994009	      0.74643346	     -2.21885045	      3.16669281	      0.05526922	     20.73709776	      5.70950790	      0.00000000	      4.11703202	     -2.08946497	      3.10366759	      5.01074197	      0.08745395	     24.28456503	     -2.58588087	      0.00000000	      0.11288579	      0.94658047	      0.07687769	      0.20964020	      1.25895203	      0.08168254	      0.18546006	      2.30151576	      0.08168254	      0.12901717	      2.30151576	      0.06726798	      0.10482574	      1.93026690	      0.06246312	      0.06450294	      1.46625315	      0.05765827	      0.80633191	     10.70790761	      0.42757064	      0.00000000	      0.00000000	     27.69492533	     -7.00056650	      6.44950045	      2.11409194	    -17.49012713	     36.45190088	     27.90215136	     74.98422134	     -9.58790590	     -0.97838983	      7.06291025	     -8.54971909	     57.86814371	     29.52895252	     77.34946273	    -16.01891858	     -1.48481765
      2.15217391	      4.75286106	     -4.72644628	     93.70364519	     -0.11659325	      0.81187491	      0.67420396	      1.86634027	      0.79140594	     -0.53605482	      2.91783121	      0.05092576	     20.32680137	      3.74219868	      0.00000000	      4.08520327	     -2.04586495	      3.73503080	      4.79718420	      0.08372666	     23.98418530	     -3.88526066	      0.00000000	      0.11899099	      0.94172912	      0.15792130	      0.22097818	      1.25249973	      0.16779138	      0.19549030	      2.28972018	      0.16779138	      0.13599481	      2.28972018	      0.13818113	      0.11049504	      1.92037402	      0.12831105	      0.06799145	      1.45873841	      0.11844097	      0.84994077	     10.65302816	      0.87831087	      0.00000000	      0.00000000	     27.68445000	     -6.96685380	      6.40095178	      1.70456314	    -17.30227678	     34.23502140	     28.30533125	     79.02351014	     -9.25718870	     -0.77870758	      6.97766104	     -8.49375135	     57.19944755	     29.60352297	     78.39677780	    -16.25112006	     -1.48008708
      2.17391304	      4.74813126	     -4.75525793	     93.37188683	     -0.11623599	      0.81177953	      0.67461684	      1.93254303	      0.80457615	     -0.55349537	      2.85823517	      0.04988561	     20.33640696	      4.10933153	      0.00000000	      4.10488845	     -2.07392270	      3.38123688	      4.83747617	      0.08442989	     24.02642728	     -3.76815753	      0.00000000	      0.11557671	      0.94319933	      0.21051640	      0.21463751	      1.25445510	      0.22367367	      0.18988098	      2.29329484	      0.22367367	      0.13209262	      2.29329484	      0.18420185	      0.10732454	      1.92337206	      0.17104457	      0.06604053	      1.46101576	      0.15788730	      0.82555290	     10.66965941	      1.17082905	      0.00000000	      0.00000000	     27.63869519	     -6.54058285	      7.07731898	      1.86314101	    -17.43332905	     35.11812791	     28.27657634	     78.87470989	     -9.58845604	     -0.83059125	      7.19693398	     -8.47490755	     58.15581515	     29.42702652	     78.68420317	    -16.79395817	     -1.45758078
      2.19565217	      4.75862567	     -4.76013580	     93.08653498	     -0.11587305	      0.81157859	      0.67503716	      1.99085469	      0.83493521	     -0.60983279	      2.84448616	      0.04964565	     20.41843146	      4.48453471	      0.00000000	      4.09294478	     -2.15106077	      2.45542788	      4.84448385	      0.08455219	     24.29244659	     -2.69143531	      0.00000000	      0.11531295	      0.94558897	      0.26631575	      0.21414768	      1.25763333	      0.28296048	      0.18944764	      2.29910502	      0.28296048	      0.13179117	      2.29910502	      0.23302628	      0.10707960	      1.92824503	      0.21638154	      0.06588982	      1.46471732	      0.19973681	      0.82366887	     10.69669155	      1.48116828	      0.00000000	      0.00000000	     27.58953412	     -6.08750261	      7.78510636	      2.05977343	    -17.57953479	     36.16079848	     28.07419465	     77.74736717	     -9.66383979	     -0.72086400	      7.58069296	     -8.41957436	     59.84891142	     28.95898125	     78.47428343	    -16.71088471	     -1.64772179
      2.21739130	      4.72727025	     -4.81191378	     92.53437219	     -0.11514076	      0.81119888	      0.67533566	      2.09139077	      0.85316205	      0.37373331	      2.78573968	      0.04862033	     20.31234917	      3.75756896	      0.00000000	      4.03580028	     -2.09795645	      3.30901615	      4.71624220	      0.08231395	     23.95737827	     -4.66410839	      0.00000000	      0.11943406	      0.94574953	      0.36519765	      0.22180100	      1.25784688	      0.38802250	      0.19621822	      2.29949541	      0.38802250	      0.13650119	      2.29949541	      0.31954794	      0.11090647	      1.92857245	      0.29672309	      0.06824462	      1.46496603	      0.27389823	      0.85310557	     10.69850786	      2.03111975	      0.00000000	      0.00000000	     27.54274895	     -5.24395577	      9.18554544	      1.96325892	    -17.54038972	     35.34641489	     28.04031940	     77.75329289	     -9.45390976	      0.08579295	      7.66150412	     -8.31620586	     60.13486904	     28.77226162	     80.55554423	    -16.56468912	     -0.83571201
      2.23913043	      4.76750786	     -4.84145353	     92.39982763	     -0.11478592	      0.81085253	      0.67580857	      2.19585518	      0.91349222	      0.17154667	      2.83493395	      0.04947893	     20.41433440	      4.14306814	      0.00000000	      4.11641544	     -2.18019518	      2.80920716	      4.77552238	      0.08334859	     24.20127588	     -4.10855225	      0.00000000	      0.12196249	      0.95146838	      0.38497417	      0.22649655	      1.26545294	      0.40903506	      0.20037218	      2.31340021	      0.40903506	      0.13939093	      2.31340021	      0.33685240	      0.11325437	      1.94023431	      0.31279152	      0.06968937	      1.47382452	      0.28873063	      0.87116590	     10.76320057	      2.14111086	      0.00000000	      0.00000000	     27.52487080	     -4.46771441	     10.45487007	      2.13353668	    -17.61698255	     35.88813274	     27.81509770	     75.75668300	     -9.63290822	      0.54960517	      8.03226680	     -8.23753131	     61.80174026	     28.31392034	     80.63361675	    -16.55730119	     -0.77875996
      2.26086957	      4.72900410	     -4.86395777	     92.07425789	     -0.11423117	      0.81055532	      0.67612499	      2.25446034	      0.90890414	      0.79270206	      2.79995164	      0.04886838	     20.37782704	      3.72346974	      0.00000000	      4.08697438	     -2.13392818	      3.10111065	      4.69352294	      0.08191743	     24.02767255	     -5.10096678	      0.00000000	      0.12043043	      0.94874631	      0.43271140	      0.22365135	      1.26183259	      0.45975586	      0.19785515	      2.30678178	      0.45975586	      0.13763993	      2.30678178	      0.37862247	      0.11183169	      1.93468348	      0.35157801	      0.06881395	      1.46960804	      0.32453355	      0.86022249	     10.73240802	      2.40661098	      0.00000000	      0.00000000	     27.48239220	     -3.94242360	     11.40776246	      2.18424683	    -17.60739691	     35.75561956	     27.62801108	     74.54004395	     -9.64761949	      1.08488714	      7.98715588	     -8.17511105	     61.42044191	     28.16420460	     81.95032326	    -15.93305497	     -0.30451211
      2.28260870	      4.83510942	     -4.89325447	     92.35036592	     -0.11434018	      0.81037111	      0.67668421	      2.28211222	      1.01047941	     -0.19300042	      2.74369508	      0.04788651	     20.43666929	      4.67355267	      0.00000000	      4.31971160	     -2.28835675	      1.89091019	      4.95272120	      0.08644129	     24.57898030	     -3.04732311	      0.00000000	      0.12588515	      0.95724538	      0.38173871	      0.23378131	      1.27313635	      0.40559738	      0.20681671	      2.32744641	      0.40559738	      0.14387414	      2.32744641	      0.33402137	      0.11689695	      1.95201477	      0.31016270	      0.07193077	      1.48277309	      0.28630403	      0.89918502	     10.82855115	      2.12311618	      0.00000000	      0.00000000	     27.49359595	     -3.80482754	     11.64234067	      2.46191970	    -17.63176097	     36.72240325	     27.15688776	     72.00986295	     -9.94269986	      1.23321760	      8.30003117	     -8.20406229	     63.00849067	     27.88935273	     79.25279329	    -15.70333803	     -0.59667981
      2.30434783	      4.76436159	     -4.99532386	     91.67290813	     -0.11314360	      0.81015851	      0.67685934	      2.47528149	      0.99972708	      1.43049424	      2.79500093	      0.04878197	     20.29813280	      3.38370917	      0.00000000	      4.17328776	     -2.20862608	      2.74102888	      4.52628737	      0.07899862	     23.99472915	     -5.24986552	      0.00000000	      0.13155571	      0.94993375	      0.50274424	      0.24431211	      1.26341188	      0.53416575	      0.21613288	      2.30966891	      0.53416575	      0.15035502	      2.30966891	      0.43990121	      0.12216263	      1.93710490	      0.40847969	      0.07517093	      1.47144737	      0.37705818	      0.93968928	     10.74584053	      2.79611262	      0.00000000	      0.00000000	     27.41631729	     -3.07529750	     12.72539308	      2.34505021	    -17.59011139	     35.91319953	     27.22669669	     72.02703855	     -9.75760731	      1.95144258	      8.11600684	     -8.23317194	     61.97964269	     27.93786467	     81.27833668	    -15.35686866	     -0.04967392
      2.32608696	      4.80964656	     -5.04434405	     91.68561848	     -0.11283835	      0.81005383	      0.67720622	      2.53345759	      1.06970858	      1.64903607	      2.74973730	      0.04799197	     20.19323152	      3.08050909	      0.00000000	      4.25260430	     -2.25156757	      3.13565910	      4.44348132	      0.07755338	     23.93064240	     -5.79068607	      0.00000000	      0.13895927	      0.95348983	      0.49415408	      0.25806127	      1.26814148	      0.52503871	      0.22829619	      2.31831518	      0.52503871	      0.15881655	      2.31831518	      0.43238482	      0.12903758	      1.94435647	      0.40150019	      0.07940133	      1.47695575	      0.37061556	      0.99257219	     10.78606771	      2.74833672	      0.00000000	      0.00000000	     27.37508336	     -3.02622074	     12.85060575	      2.34130080	    -17.56639560	     35.46531541	     27.24894847	     72.42240858	     -9.77856613	      2.34309461	      8.06300450	     -8.24192424	     61.67700889	     27.82566416	     81.36204785	    -15.06707581	     -0.04897653
      2.34782609	      4.85421095	     -5.05347584	     91.47985234	     -0.11224993	      0.81014756	      0.67754231	      2.61330963	      1.14821480	      2.14436440	      2.79363225	      0.04875808	     20.08427806	      2.67922148	      0.00000000	      4.22042956	     -2.31049158	      3.48150911	      4.23015774	      0.07383018	     23.80035663	     -6.53472536	      0.00000000	      0.14107471	      0.95693571	      0.53683214	      0.26198984	      1.27272450	      0.57038415	      0.23177164	      2.32669349	      0.57038415	      0.16123428	      2.32669349	      0.46972812	      0.13100197	      1.95138331	      0.43617611	      0.08061009	      1.48229342	      0.40262410	      1.00768253	     10.82504818	      2.98569931	      0.00000000	      0.00000000	     27.27670712	     -3.18501522	     12.67367805	      2.38780372	    -17.61118831	     35.55258282	     27.26050861	     72.99414563	     -9.91557128	      2.24508282	      8.18601243	     -8.32605664	     62.34915970	     27.81530206	     80.58045984	    -15.19042231	      0.16872879
